<?xml version="1.0" standalone="no"?>
<!DOCTYPE svg PUBLIC "-//W3C//DTD SVG 20010904//EN"
 "http://www.w3.org/TR/2001/REC-SVG-20010904/DTD/svg10.dtd">
<svg version="1.0" xmlns="http://www.w3.org/2000/svg"
 width="512.000000pt" height="512.000000pt" viewBox="0 0 512.000000 512.000000"
 preserveAspectRatio="xMidYMid meet">
<metadata>
Created by potrace 1.16, written by Peter Selinger 2001-2019
</metadata>
<g transform="translate(0.000000,512.000000) scale(0.100000,-0.100000)"
fill="#000000" stroke="none">
<path d="M1833 3985 c-64 -32 -136 -107 -131 -138 2 -18 17 -26 74 -45 125
-39 192 -121 214 -257 31 -193 29 -595 -4 -752 -50 -243 -173 -245 -356 -3
-166 219 -363 570 -505 897 -55 127 -89 174 -148 205 -40 20 -54 21 -453 20
-436 0 -462 -2 -504 -47 -19 -21 -22 -32 -18 -82 4 -48 26 -103 127 -318 226
-480 438 -866 654 -1190 354 -530 638 -809 1002 -985 278 -134 533 -185 891
-179 163 4 183 6 226 27 67 33 85 76 98 229 13 146 30 217 73 303 51 103 125
135 215 93 40 -18 170 -145 381 -371 142 -153 217 -211 321 -252 l65 -25 467
-3 c518 -3 513 -4 563 62 34 45 44 131 22 194 -46 131 -194 312 -513 627 -293
289 -312 314 -300 408 8 68 33 107 299 465 126 169 263 359 306 422 145 214
221 382 221 486 0 48 -4 60 -28 84 -53 52 -76 55 -592 55 -447 0 -477 -1 -513
-19 -49 -24 -75 -64 -132 -206 -147 -360 -357 -721 -545 -937 -133 -153 -181
-171 -250 -96 -69 73 -70 84 -70 637 0 526 -5 582 -52 648 -11 17 -39 39 -62
49 -38 17 -74 19 -517 19 l-475 0 -51 -25z"/>
</g>
</svg>
